# xmcd
#
# Track frame offsets:
#	150
#	11162
#	27869
#	44259
#	70521
#	94508
#	108921
#	124667
#	137469
#	155266
#
# Disc length: 2246 seconds
# Revision: 0
# Processed by: cddbd v1.5.2PL0 Copyright (c) Steve Scherf et al.
# Submitted via: dBpowerAMP V12.0
#
DISCID=7008c40a
DTITLE=Solomon Burke - We´re Almost Home
DYEAR=1972
DGENRE=Soul
TTITLE0=We´re Almost Home
TTITLE1=I´ve Got To Do My Own Thing
TTITLE2=I Got To Tell It
TTITLE3=Drown in My Own tears
TTITLE4=I Can´t Stop Loving You
TTITLE5=The Things Love Will Make You Do
TTITLE6=Everybody Wants To Fall in Love
TTITLE7=Misty
TTITLE8=Everything´s Going To Be Allright
TTITLE9=Sweet, Sweet Reason
EXTD=
EXTT0=
EXTT1=
EXTT2=
EXTT3=
EXTT4=
EXTT5=
EXTT6=
EXTT7=
EXTT8=
EXTT9=
PLAYORDER=
